# xmcd
#
# Track frame offsets:
#	150
#	15037
#	31724
#	46087
#	59014
#	71687
#	86123
#	100719
#	113331
#	125023
#	139380
#	152542
#	163130
#	179074
#	190547
#	204673
#	217019
#	231155
#	245191
#	258947
#	272522
#	285271
#
# Disc length: 4068 seconds
#
# Revision: 0
# Processed by: cddbd v1.5.2PL0 Copyright (c) Steve Scherf et al.
# Submitted via: EasyCDDAExtractor 11.0.0.1
#
DISCID=340fe216
DTITLE=나훈아 - 大韓民國소리꾼 나훈아 - Golden Best - CD-2
DYEAR=2012
DGENRE=K-GAYO
TTITLE0=사랑
TTITLE1=영영
TTITLE2=해변의 여인
TTITLE3=18세 순이
TTITLE4=고향역
TTITLE5=사랑은 무죄다
TTITLE6=애정이 꽃피던 시절
TTITLE7=강촌에 살고 싶네
TTITLE8=울긴 왜 울어
TTITLE9=잡초
TTITLE10=청춘을 돌려다오
TTITLE11=사랑은 눈물의 씨앗
TTITLE12=머나먼 고향
TTITLE13=꿈속의 고향
TTITLE14=찻집의 고독
TTITLE15=건배
TTITLE16=바람개비
TTITLE17=가지마오
TTITLE18=대동강 편지
TTITLE19=너와 나의 고향
TTITLE20=잊을수가  있을까
TTITLE21=내 고향은 부산입니더
EXTD=
EXTT0=
EXTT1=
EXTT2=
EXTT3=
EXTT4=
EXTT5=
EXTT6=
EXTT7=
EXTT8=
EXTT9=
EXTT10=
EXTT11=
EXTT12=
EXTT13=
EXTT14=
EXTT15=
EXTT16=
EXTT17=
EXTT18=
EXTT19=
EXTT20=
EXTT21=
PLAYORDER=
